<svg xmlns="http://www.w3.org/2000/svg" xmlns:xlink="http://www.w3.org/1999/xlink" width="992" height="1024" viewBox="0 0 992 1024">
  <style>
    path { fill: #111111; }
    @media (prefers-color-scheme: dark) {
      path { fill: #ffffff; }
    }
  </style>
  <clipPath id="cl_4"><rect x="3.0517578e-05" y="-3.0517578e-05" width="991.88196" height="1024"/></clipPath>
  <g clip-path="url(#cl_4)">
    <path transform="matrix(1.8893 0 0 1.8893 -472.325 -451.542)" d="M582.988 264.756C583.677 264.741 584.367 264.733 585.056 264.732C607.595 264.6 625.677 268.054 642.275 284.667C650.838 293.353 656.976 304.131 660.076 315.927C663.592 329.625 662.51 356.179 662.481 371.414L662.594 430.668C648.253 443.219 633.773 455.611 619.158 467.842C613.501 472.586 602.207 482.426 596.518 486.276C596.961 479.312 597.048 472.102 596.935 465.125C596.229 421.484 597.354 377.753 596.775 334.123C587.476 333.78 576.124 334.058 566.648 334.055L509.953 334.035C490.885 333.886 471.815 333.966 452.749 334.274C443.847 334.405 437.05 334.124 428.044 334.739C427.335 341.8 427.552 349.725 427.563 356.877L427.583 388.82L427.486 492.875C427.467 493.68 427.291 497.561 427.912 497.99C432.253 500.99 437.241 503.096 441.896 505.572C453.618 511.94 465.413 518.174 477.277 524.273C487.531 529.571 498.624 534.898 508.266 541.115C492.626 554.863 477.356 567.861 462.014 582.014C431.068 565.063 393.841 547.275 361.951 531.621C362.027 482.195 361.938 432.785 362.032 383.339L361.974 347.627C362 337.575 361.631 326.511 363.888 316.733C369.464 292.923 391.226 271.551 415.487 267.027C434.443 263.492 458.119 264.886 477.764 264.893L582.988 264.756Z"/>
    <path transform="matrix(1.8893 0 0 1.8893 -472.325 -451.542)" d="M754.277 376.947L754.688 377.302L555.893 652.967L499.629 730.909C493.194 739.796 487.032 748.957 480.485 757.718C463.916 741.617 447.56 724.128 431.16 707.714C395.721 672.248 360.977 635.69 325.394 600.395C322.578 597.104 317.517 592.275 314.379 589.08L293.322 567.685C286.577 560.835 272.137 545.126 265.579 540.166C307.95 560.701 350.143 581.6 392.155 602.859C417.505 615.395 442.744 626.725 467.354 640.863C476.462 630.479 492.875 616.594 503.525 606.822L574.164 542.195L680.398 444.474C704.611 422.084 729.431 398.501 754.277 376.947Z"/>
  </g>
</svg>
